# xmcd CD database file
#
# Track frame offsets:
#	150
#	12405
#	32663
#	48696
#	64688
#	76669
#	87431
#	102000
#	118112
#	131170
#	150327
#	162523
#	174928
#	188573
#	200344
#	211854
#	224617
#	241838
#	254489
#	267795
#	282453
#
# Disc length: 3924 seconds
#
# Revision: 0
# Processed by: cddbd v1.5.2PL0 Copyright (c) Steve Scherf et al.
# Submitted via: ACXtractor (MTCDDB.DLL V2003.12.21)
#
DISCID=240f5215
DTITLE=Neville Anderson - True to Country
DYEAR=2000
DGENRE=Country
TTITLE0=Blessings in Disquise
TTITLE1=Call me Country
TTITLE2=Corners of my Smile
TTITLE3=Women of the Night
TTITLE4=Dirt and Tar
TTITLE5=The Same Address
TTITLE6=Your Older Man
TTITLE7=Old Images
TTITLE8=Little by Little
TTITLE9=Friendly Henry
TTITLE10=Here I go Again
TTITLE11=Wind over Embers
TTITLE12=Heart on the Shelf
TTITLE13=Heartbreak Highway
TTITLE14=Country in my Blood
TTITLE15=I've got my Baby on My Mind
TTITLE16=We Never Touch at All
TTITLE17=Hangin' in and Hangin' On
TTITLE18=The Image of Me
TTITLE19=Someone had to Teach You
TTITLE20=Piccaninny Dawn
EXTD=ID3G:   2 YEAR: 2000
EXTT0=
EXTT1=
EXTT2=
EXTT3=
EXTT4=
EXTT5=
EXTT6=
EXTT7=
EXTT8=
EXTT9=
EXTT10=
EXTT11=
EXTT12=
EXTT13=
EXTT14=
EXTT15=
EXTT16=
EXTT17=
EXTT18=
EXTT19=
EXTT20=
PLAYORDER=
